<?xml version="1.0" encoding="UTF-8"?>
<svg xmlns="http://www.w3.org/2000/svg" width="1309" height="1255" viewBox="1311.6 1512 1309 1255" font-family="sans-serif">
<rect x="1311.6" y="1512" width="1309" height="1255" fill="#fafafa"/>
<line x1="2048" y1="1974" x2="2048" y2="1862.2" stroke="#222222" stroke-width="4" stroke-linecap="round"/>
<polygon points="2048,1845.4 2060,1869.4 2036,1869.4" fill="#222222"/>
<line x1="2048" y1="1770.6" x2="2048" y2="1650.3999999999999" stroke="#222222" stroke-width="4" stroke-linecap="round"/>
<polygon points="2048,1633.6 2060,1657.6 2036,1657.6" fill="#222222"/>
<line x1="2122" y1="2048" x2="2233.7999999999997" y2="2048" stroke="#222222" stroke-width="4" stroke-linecap="round"/>
<polygon points="2250.6,2048 2226.6,2060 2226.6,2036" fill="#222222"/>
<line x1="2325.4" y1="2048" x2="2437.7999999999997" y2="2048" stroke="#222222" stroke-width="4" stroke-linecap="round"/>
<polygon points="2454.6,2048 2430.6,2060 2430.6,2036" fill="#222222"/>
<line x1="2048" y1="2122" x2="2048" y2="2241.6" stroke="#222222" stroke-width="4" stroke-linecap="round"/>
<polygon points="2048,2258.4 2036,2234.4 2060,2234.4" fill="#222222"/>
<line x1="2048" y1="2317.6" x2="2048" y2="2422.2" stroke="#222222" stroke-width="4" stroke-linecap="round"/>
<polygon points="2048,2439 2036,2415 2060,2415" fill="#222222"/>
<line x1="2048" y1="2545" x2="2048" y2="2580" stroke="#222222" stroke-width="4" stroke-linecap="round"/>
<polygon points="2048,2596.8 2036,2572.8 2060,2572.8" fill="#222222"/>
<line x1="1974" y1="2048" x2="1854.3999999999999" y2="2048" stroke="#222222" stroke-width="4" stroke-linecap="round"/>
<polygon points="1837.6,2048 1861.6,2036 1861.6,2060" fill="#222222"/>
<line x1="1778.4" y1="2048" x2="1650.3999999999999" y2="2048" stroke="#222222" stroke-width="4" stroke-linecap="round"/>
<polygon points="1633.6,2048 1657.6,2036 1657.6,2060" fill="#222222"/>
<line x1="1574.4" y1="2048" x2="1500.3999999999999" y2="2048" stroke="#222222" stroke-width="4" stroke-linecap="round"/>
<polygon points="1483.6,2048 1507.6,2036 1507.6,2060" fill="#222222"/>
<text x="1391.6" y="2036" font-size="24" fill="#222222" dominant-baseline="text-before-edge">13000</text>
<text x="2024.6" y="1796" font-size="24" fill="#222222" dominant-baseline="text-before-edge">무협지</text>
<text x="2032.4" y="1592" font-size="24" fill="#222222" dominant-baseline="text-before-edge">김용</text>
<text x="2264.6" y="2036" font-size="24" fill="#222222" dominant-baseline="text-before-edge">판타지</text>
<text x="2468.6" y="2036" font-size="24" fill="#222222" dominant-baseline="text-before-edge">뱀뱀이</text>
<text x="2032.4" y="2276" font-size="24" fill="#222222" dominant-baseline="text-before-edge">잡지</text>
<text x="2009" y="2480" font-size="24" fill="#222222" dominant-baseline="text-before-edge">PC 사랑</text>
<text x="1993.4" y="2653.4" font-size="24" fill="#222222" dominant-baseline="text-before-edge">2026.05</text>
<text x="1792.4" y="2036" font-size="24" fill="#222222" dominant-baseline="text-before-edge">할일</text>
<text x="1588.4" y="2036" font-size="24" fill="#222222" dominant-baseline="text-before-edge">이발</text>
<text x="1966.1" y="2139.5" font-size="28" fill="#333" text-anchor="middle" dominant-baseline="central">Book</text>
</svg>